<?xml version="1.0" encoding="utf-8"?>
<!-- Generator: Adobe Illustrator 24.1.2, SVG Export Plug-In . SVG Version: 6.00 Build 0)  -->
<svg version="1.1" id="Layer_1" xmlns="http://www.w3.org/2000/svg" xmlns:xlink="http://www.w3.org/1999/xlink" x="0px" y="0px"
	 viewBox="0 0 496.7 263.1" style="enable-background:new 0 0 496.7 263.1;" xml:space="preserve">
<style type="text/css">
	.st0{fill:#E6E6E6;}
	.green{fill:#9ECA7D;}
	.st2{font-family:'Raleway-Bold';}
	.st3{font-size:16px;}
	.st4{font-family:'Raleway';}
	.st5{font-size:12px;}
</style>
<g id="Layer_2_1_">
	<g id="Layer_1-2">
		<path class="st0" d="M213.9,153.1h-37v-37h37V153.1z M177.1,152.9h36.5v-36.5h-36.5L177.1,152.9z"/>
		<path class="st0" d="M250.6,153.1h-37v-37h37.1L250.6,153.1z M213.9,152.9h36.5v-36.5h-36.5L213.9,152.9z"/>
		<path class="st0" d="M287.4,153.1h-37.1v-37h37.1V153.1z M250.7,152.9h36.5v-36.5h-36.5L250.7,152.9z"/>
		<path class="st0" d="M324.2,153.1h-37v-37h37V153.1z M287.4,152.9h36.5v-36.5h-36.5V152.9z"/>
		<path class="st0" d="M360.9,153.1h-37v-37h37V153.1z M324.2,152.9h36.5v-36.5h-36.5V152.9z"/>
		<path class="st0" d="M140.4,153.1h-37v-37h37.1L140.4,153.1z M103.6,152.9h36.5v-36.5h-36.5L103.6,152.9z"/>
		<path class="st0" d="M177.1,153.1h-37v-37h37.1L177.1,153.1z M140.3,152.9h36.5v-36.5h-36.5L140.3,152.9z"/>
		<path class="st0" d="M213.9,189.9h-37v-37h37V189.9z M177.1,189.6h36.5v-36.5h-36.5L177.1,189.6z"/>
		<path class="st0" d="M250.6,189.9h-37v-37h37.1L250.6,189.9z M213.9,189.6h36.5v-36.5h-36.5L213.9,189.6z"/>
		<path class="st0" d="M287.4,189.9h-37.1v-37h37.1V189.9z M250.7,189.6h36.5v-36.5h-36.5L250.7,189.6z"/>
		<path class="st0" d="M324.2,189.9h-37v-37h37V189.9z M287.4,189.6h36.5v-36.5h-36.5V189.6z"/>
		<path class="st0" d="M360.9,189.9h-37v-37h37V189.9z M324.2,189.6h36.5v-36.5h-36.5V189.6z"/>
		<path class="st0" d="M140.4,189.9h-37v-37h37.1L140.4,189.9z M103.6,189.6h36.5v-36.5h-36.5L103.6,189.6z"/>
		<path class="st0" d="M177.1,189.9h-37v-37h37.1L177.1,189.9z M140.3,189.6h36.5v-36.5h-36.5L140.3,189.6z"/>
		<path class="st0" d="M213.9,226.7h-37v-37h37V226.7z M177.1,226.4h36.5v-36.5h-36.5L177.1,226.4z"/>
		<path class="st0" d="M250.6,226.7h-37v-37h37.1L250.6,226.7z M213.9,226.4h36.5v-36.5h-36.5L213.9,226.4z"/>
		<path class="st0" d="M287.4,226.7h-37.1v-37h37.1V226.7z M250.7,226.4h36.5v-36.5h-36.5L250.7,226.4z"/>
		<path class="st0" d="M324.2,226.7h-37v-37h37V226.7z M287.4,226.4h36.5v-36.5h-36.5V226.4z"/>
		<path class="st0" d="M360.9,226.7h-37v-37h37V226.7z M324.2,226.4h36.5v-36.5h-36.5V226.4z"/>
		<path class="st0" d="M140.4,226.7h-37v-37h37.1L140.4,226.7z M103.6,226.4h36.5v-36.5h-36.5L103.6,226.4z"/>
		<path class="st0" d="M177.1,226.7h-37v-37h37.1L177.1,226.7z M140.3,226.4h36.5v-36.5h-36.5L140.3,226.4z"/>
		<path class="st0" d="M213.9,79.6h-37V42.6h37V79.6z M177.1,79.3h36.5V42.9h-36.5L177.1,79.3z"/>
		<path class="st0" d="M250.6,79.6h-37V42.6h37.1L250.6,79.6z M213.9,79.3h36.5V42.9h-36.5L213.9,79.3z"/>
		<path class="st0" d="M287.4,79.6h-37.1V42.6h37.1V79.6z M250.7,79.3h36.5V42.9h-36.5L250.7,79.3z"/>
		<path class="st0" d="M324.2,79.6h-37V42.6h37V79.6z M287.4,79.3h36.5V42.9h-36.5V79.3z"/>
		<path class="st0" d="M360.9,79.6h-37V42.6h37V79.6z M324.2,79.3h36.5V42.9h-36.5V79.3z"/>
		<path class="st0" d="M140.4,79.6h-37V42.6h37.1L140.4,79.6z M103.6,79.3h36.5V42.9h-36.5L103.6,79.3z"/>
		<path class="st0" d="M177.1,79.6h-37V42.6h37.1L177.1,79.6z M140.3,79.3h36.5V42.9h-36.5L140.3,79.3z"/>
		<path class="st0" d="M177.1,42.9h-37v-37h37.1L177.1,42.9z M140.3,42.6h36.5V6.1h-36.5L140.3,42.6z"/>
		<path class="st0" d="M213.9,116.4h-37v-37h37V116.4z M177.1,116.1h36.5V79.6h-36.5L177.1,116.1z"/>
		<path class="st0" d="M250.6,116.4h-37v-37h37.1L250.6,116.4z M213.9,116.1h36.5V79.6h-36.5L213.9,116.1z"/>
		<path class="st0" d="M287.4,116.4h-37.1v-37h37.1V116.4z M250.7,116.1h36.5V79.6h-36.5L250.7,116.1z"/>
		<path class="st0" d="M324.2,116.4h-37v-37h37V116.4z M287.4,116.1h36.5V79.6h-36.5V116.1z"/>
		<path class="st0" d="M360.9,116.4h-37v-37h37V116.4z M324.2,116.1h36.5V79.6h-36.5V116.1z"/>
		<path class="st0" d="M397.7,153.1h-37v-37h37V153.1z M360.9,152.9h36.5v-36.5h-36.5V152.9z"/>
		<path class="st0" d="M397.7,189.9h-37v-37h37V189.9z M360.9,189.6h36.5v-36.5h-36.5V189.6z"/>
		<path class="st0" d="M397.7,226.7h-37v-37h37V226.7z M360.9,226.4h36.5v-36.5h-36.5V226.4z"/>
		<path class="st0" d="M397.7,79.6h-37V42.6h37V79.6z M360.9,79.3h36.5V42.9h-36.5V79.3z"/>
		<path class="st0" d="M213.9,42.9h-37v-37h37V42.9z M177.1,42.6h36.5V6.1h-36.5L177.1,42.6z"/>
		<path class="st0" d="M250.6,42.9h-37v-37h37.1L250.6,42.9z M213.9,42.6h36.5V6.1h-36.5L213.9,42.6z"/>
		<path class="st0" d="M287.4,42.9h-37.1v-37h37.1V42.9z M250.7,42.6h36.5V6.1h-36.5L250.7,42.6z"/>
		<path class="st0" d="M324.2,42.9h-37v-37h37V42.9z M287.4,42.6h36.5V6.1h-36.5V42.6z"/>
		<path class="st0" d="M360.9,42.9h-37v-37h37V42.9z M324.2,42.6h36.5V6.1h-36.5V42.6z"/>
		<path class="st0" d="M140.4,42.9h-37v-37h37.1L140.4,42.9z M103.6,42.6h36.5V6.1h-36.5L103.6,42.6z"/>
		<path class="st0" d="M397.7,42.9h-37v-37h37V42.9z M360.9,42.6h36.5V6.1h-36.5V42.6z"/>
		<path class="st0" d="M397.7,116.4h-37v-37h37V116.4z M360.9,116.1h36.5V79.6h-36.5V116.1z"/>
		<path class="st0" d="M434.5,153.1h-37v-37h37V153.1z M397.7,152.9h36.5v-36.5h-36.5V152.9z"/>
		<path class="st0" d="M434.5,189.9h-37v-37h37V189.9z M397.7,189.6h36.5v-36.5h-36.5V189.6z"/>
		<path class="st0" d="M434.5,226.7h-37v-37h37V226.7z M397.7,226.4h36.5v-36.5h-36.5V226.4z"/>
		<path class="st0" d="M434.5,79.6h-37V42.6h37V79.6z M397.7,79.3h36.5V42.9h-36.5V79.3z"/>
		<path class="st0" d="M434.5,42.9h-37v-37h37V42.9z M397.7,42.6h36.5V6.1h-36.5V42.6z"/>
		<path class="st0" d="M434.5,116.4h-37v-37h37V116.4z M397.7,116.1h36.5V79.6h-36.5V116.1z"/>
		<path class="st0" d="M140.4,116.4h-37v-37h37.1L140.4,116.4z M103.6,116.1h36.5V79.6h-36.5L103.6,116.1z"/>
		<path class="st0" d="M177.1,116.4h-37v-37h37.1L177.1,116.4z M140.3,116.1h36.5V79.6h-36.5L140.3,116.1z"/>
		<path d="M434.4,225.8h-0.1l0,0H104.2V6c0-0.4-0.3-0.7-0.7-0.7h-9.2c-0.4,0-0.7,0.3-0.7,0.7s0.3,0.7,0.7,0.7h8.5V42h-8.5
			c-0.4,0-0.7,0.4-0.6,0.8c0,0.3,0.3,0.6,0.6,0.6h8.5v35.4h-8.5c-0.4,0-0.7,0.3-0.7,0.7c0,0.4,0.3,0.7,0.7,0.7h8.5v35.3h-8.5
			c-0.4,0-0.7,0.4-0.6,0.8c0,0.3,0.3,0.6,0.6,0.6h8.5v35.4h-8.5c-0.4,0-0.7,0.3-0.7,0.7c0,0.4,0.3,0.7,0.7,0.7h8.5v35.4h-8.5
			c-0.4,0-0.7,0.4-0.6,0.8c0,0.3,0.3,0.6,0.6,0.6h8.5v35.4h-8.5c-0.4,0-0.7,0.3-0.7,0.7c0,0.4,0.3,0.7,0.7,0.7h8.4v8.5
			c0,0.4,0.2,0.7,0.6,0.8c0.4,0,0.7-0.2,0.8-0.6c0-0.1,0-0.1,0-0.2v-8.5h35.3v8.5c0,0.4,0.3,0.7,0.7,0.7c0.4,0,0.7-0.3,0.7-0.7v-8.5
			h35.4v8.5c0,0.4,0.3,0.7,0.7,0.7c0.4,0,0.7-0.3,0.7-0.7v-8.5H213v8.5c0,0.4,0.3,0.7,0.7,0.7c0.4,0,0.7-0.3,0.7-0.7v-8.5h35.4v8.5
			c0,0.4,0.3,0.7,0.7,0.7c0.4,0,0.7-0.3,0.7-0.7c0,0,0,0,0,0v-8.5h35.4v8.5c0,0.4,0.3,0.7,0.7,0.7c0.4,0,0.7-0.3,0.7-0.7v-8.5h35.4
			v8.5c0,0.4,0.3,0.7,0.7,0.7c0.4,0,0.7-0.3,0.7-0.7v-8.5h35.4v8.5c0,0.4,0.3,0.7,0.7,0.7c0.4,0,0.7-0.3,0.7-0.7v-8.5H397v8.5
			c0,0.4,0.3,0.7,0.7,0.7c0.4,0,0.7-0.3,0.7-0.7v-8.5h35.4v8.5c0,0.4,0.3,0.7,0.7,0.7c0.4,0,0.7-0.3,0.7-0.7v-9.2
			C435.2,226.1,434.8,225.8,434.4,225.8C434.4,225.8,434.4,225.8,434.4,225.8z"/>
		<path class="green animated fadeInUp" d="M434.3,135.6c-0.8,0-1.5,0.3-2,0.9c-6.3-2.5-25.6-7-63.5,10c-44,19.7-63.7,23.4-70.1,24.1
			c-0.5-1.4-2-2.1-3.3-1.6c-0.8,0.3-1.4,0.9-1.7,1.7c-41.1-2.5-65.3-65.9-83.1-112.6c-9.7-25.6-17.2-45-24.8-49.3c0-0.1,0-0.1,0-0.2
			c0-1.5-1.1-2.7-2.5-2.7c-1.4,0-2.6,1-2.7,2.4c-8,3.2-15.6,25.4-24.3,71.1c-20.4,107.4-44.7,138.2-51.4,145
			c-0.4-0.3-0.9-0.4-1.4-0.4c-1.5,0-2.6,1.2-2.6,2.6s1.2,2.6,2.6,2.6s2.6-1.2,2.6-2.6l0,0c0-0.4-0.1-0.8-0.2-1.1
			c7.1-6.8,31.2-37,51.8-145.8c5.4-28.3,13.5-65.6,23.1-69.9c0.6,1.3,2.2,1.9,3.5,1.3c0.4-0.2,0.8-0.5,1-0.8
			c7.2,4.3,15.1,25,24.1,48.4c17.9,47,42.4,111,84.4,113.5c0.3,1.4,1.8,2.3,3.2,1.9c1-0.2,1.7-1,1.9-2c6.5-0.6,26.1-4.3,70.6-24.2
			c23.9-10.7,40.2-12.5,49.6-12.2c4.3,0.1,8.6,0.8,12.6,2.3c0,0.1,0,0.3,0,0.4c0,1.5,1.2,2.7,2.6,2.7s2.6-1.2,2.6-2.6
			C437,136.8,435.8,135.6,434.3,135.6L434.3,135.6L434.3,135.6z"/>
		<text transform="matrix(1 0 0 1 249.66 259.41)" class="st2 st3 animated fadeIn">Time</text>
		<text transform="matrix(1 0 0 1 0 121.25)" class="st2 st3 animated fadeIn">Retention</text>
		<text transform="matrix(1 0 0 1 199.4 10.26)" class="st4 st5 animated fadeIn" style="animation-delay: 0.25s;" >Peak of inflated expectations</text>
		<text transform="matrix(1 0 0 1 225.96 189.63)" class="st4 st5 animated fadeIn" style="animation-delay: 0.5s;" >Trough of disillusionment</text>
		<text transform="matrix(1 0 0 1 370 125.7)" class="st4 st5 animated fadeIn" style="animation-delay: 1s;" >Plateau of productivity</text>
	</g>
</g>
</svg>
