<?xml version="1.0" encoding="utf-8"?>
<!-- Generator: Adobe Illustrator 24.1.2, SVG Export Plug-In . SVG Version: 6.00 Build 0)  -->
<svg version="1.1" id="Layer_1" xmlns="http://www.w3.org/2000/svg" xmlns:xlink="http://www.w3.org/1999/xlink" x="0px" y="0px"
	 viewBox="0 0 437 283.7" style="enable-background:new 0 0 437 283.7;" xml:space="preserve">
<style type="text/css">
	.st0{fill:#E6E6E6;}
	.green{fill:#9ECA7D;}
	.st2{font-family:'Raleway-Bold';}
	.st3{font-size:16px;}
	.st4{font-family:'Raleway';}
	.st5{font-size:12px;}
</style>
<g id="Layer_2_1_">
	<g id="Layer_1-2">
		<path class="st0" d="M213.9,173.8h-37v-37.1h37V173.8z M177.1,173.5h36.5V137h-36.5L177.1,173.5z"/>
		<path class="st0" d="M250.6,173.8h-37v-37.1h37.1L250.6,173.8z M213.9,173.5h36.5V137h-36.5L213.9,173.5z"/>
		<path class="st0" d="M287.4,173.8h-37.1v-37.1h37.1V173.8z M250.7,173.5h36.5V137h-36.5L250.7,173.5z"/>
		<path class="st0" d="M324.2,173.8h-37v-37.1h37V173.8z M287.4,173.5h36.5V137h-36.5V173.5z"/>
		<path class="st0" d="M360.9,173.8h-37v-37.1h37V173.8z M324.2,173.5h36.5V137h-36.5V173.5z"/>
		<path class="st0" d="M140.4,173.8h-37v-37.1h37.1L140.4,173.8z M103.6,173.5h36.5V137h-36.5L103.6,173.5z"/>
		<path class="st0" d="M177.1,173.8h-37v-37.1h37.1L177.1,173.8z M140.3,173.5h36.5V137h-36.5L140.3,173.5z"/>
		<path class="st0" d="M213.9,210.5h-37v-37h37V210.5z M177.1,210.2h36.5v-36.5h-36.5L177.1,210.2z"/>
		<path class="st0" d="M250.6,210.5h-37v-37h37.1L250.6,210.5z M213.9,210.2h36.5v-36.5h-36.5L213.9,210.2z"/>
		<path class="st0" d="M287.4,210.5h-37.1v-37h37.1V210.5z M250.7,210.2h36.5v-36.5h-36.5L250.7,210.2z"/>
		<path class="st0" d="M324.2,210.5h-37v-37h37V210.5z M287.4,210.2h36.5v-36.5h-36.5V210.2z"/>
		<path class="st0" d="M360.9,210.5h-37v-37h37V210.5z M324.2,210.2h36.5v-36.5h-36.5V210.2z"/>
		<path class="st0" d="M140.4,210.5h-37v-37h37.1L140.4,210.5z M103.6,210.2h36.5v-36.5h-36.5L103.6,210.2z"/>
		<path class="st0" d="M177.1,210.5h-37v-37h37.1L177.1,210.5z M140.3,210.2h36.5v-36.5h-36.5L140.3,210.2z"/>
		<path class="st0" d="M213.9,247.3h-37v-37.1h37V247.3z M177.1,247h36.5v-36.5h-36.5V247z"/>
		<path class="st0" d="M250.6,247.3h-37v-37.1h37.1L250.6,247.3z M213.9,247h36.5v-36.5h-36.5V247z"/>
		<path class="st0" d="M287.4,247.3h-37.1v-37.1h37.1V247.3z M250.6,247h36.5v-36.5h-36.5V247z"/>
		<path class="st0" d="M324.2,247.3h-37v-37.1h37V247.3z M287.4,247h36.5v-36.5h-36.5V247z"/>
		<path class="st0" d="M360.9,247.3h-37v-37.1h37V247.3z M324.2,247h36.5v-36.5h-36.5V247z"/>
		<path class="st0" d="M140.4,247.3h-37v-37.1h37.1L140.4,247.3z M103.6,247h36.5v-36.5h-36.5V247z"/>
		<path class="st0" d="M177.1,247.3h-37v-37.1h37.1L177.1,247.3z M140.4,247h36.5v-36.5h-36.5V247z"/>
		<path class="st0" d="M213.9,100.2h-37v-37h37V100.2z M177.1,100h36.5V63.5h-36.5V100z"/>
		<path class="st0" d="M250.6,100.2h-37v-37h37.1L250.6,100.2z M213.9,100h36.5V63.5h-36.5V100z"/>
		<path class="st0" d="M287.4,100.2h-37.1v-37h37.1V100.2z M250.6,100h36.5V63.5h-36.5V100z"/>
		<path class="st0" d="M324.2,100.2h-37v-37h37V100.2z M287.4,100h36.5V63.5h-36.5V100z"/>
		<path class="st0" d="M360.9,100.2h-37v-37h37V100.2z M324.2,100h36.5V63.5h-36.5V100z"/>
		<path class="st0" d="M140.4,100.2h-37v-37h37.1L140.4,100.2z M103.6,100h36.5V63.5h-36.5V100z"/>
		<path class="st0" d="M177.1,100.2h-37v-37h37.1L177.1,100.2z M140.4,100h36.5V63.5h-36.5V100z"/>
		<path class="st0" d="M177.1,63.5h-37v-37h37.1L177.1,63.5z M140.3,63.2h36.5V26.7h-36.5L140.3,63.2z"/>
		<path class="st0" d="M213.9,137h-37v-37h37V137z M177.1,136.7h36.5v-36.5h-36.5L177.1,136.7z"/>
		<path class="st0" d="M250.6,137h-37v-37h37.1L250.6,137z M213.9,136.7h36.5v-36.5h-36.5L213.9,136.7z"/>
		<path class="st0" d="M287.4,137h-37.1v-37h37.1V137z M250.7,136.7h36.5v-36.5h-36.5L250.7,136.7z"/>
		<path class="st0" d="M324.2,137h-37v-37h37V137z M287.4,136.7h36.5v-36.5h-36.5V136.7z"/>
		<path class="st0" d="M360.9,137h-37v-37h37V137z M324.2,136.7h36.5v-36.5h-36.5V136.7z"/>
		<path class="st0" d="M397.7,173.8h-37v-37.1h37V173.8z M360.9,173.5h36.5V137h-36.5V173.5z"/>
		<path class="st0" d="M397.7,210.5h-37v-37h37V210.5z M360.9,210.2h36.5v-36.5h-36.5V210.2z"/>
		<path class="st0" d="M397.7,247.3h-37v-37.1h37V247.3z M360.9,247h36.5v-36.5h-36.5V247z"/>
		<path class="st0" d="M397.7,100.2h-37v-37h37V100.2z M360.9,100h36.5V63.5h-36.5V100z"/>
		<path class="st0" d="M213.9,63.5h-37v-37h37V63.5z M177.1,63.2h36.5V26.7h-36.5L177.1,63.2z"/>
		<path class="st0" d="M250.6,63.5h-37v-37h37.1L250.6,63.5z M213.9,63.2h36.5V26.7h-36.5L213.9,63.2z"/>
		<path class="st0" d="M287.4,63.5h-37.1v-37h37.1V63.5z M250.7,63.2h36.5V26.7h-36.5L250.7,63.2z"/>
		<path class="st0" d="M324.2,63.5h-37v-37h37V63.5z M287.4,63.2h36.5V26.7h-36.5V63.2z"/>
		<path class="st0" d="M360.9,63.5h-37v-37h37V63.5z M324.2,63.2h36.5V26.7h-36.5V63.2z"/>
		<path class="st0" d="M140.4,63.5h-37v-37h37.1L140.4,63.5z M103.6,63.2h36.5V26.7h-36.5L103.6,63.2z"/>
		<path class="st0" d="M397.7,63.5h-37v-37h37V63.5z M360.9,63.2h36.5V26.7h-36.5V63.2z"/>
		<path class="st0" d="M397.7,137h-37v-37h37V137z M360.9,136.7h36.5v-36.5h-36.5V136.7z"/>
		<path class="st0" d="M434.5,173.8h-37v-37.1h37V173.8z M397.7,173.5h36.5V137h-36.5V173.5z"/>
		<path class="st0" d="M434.5,210.5h-37v-37h37V210.5z M397.7,210.2h36.5v-36.5h-36.5V210.2z"/>
		<path class="st0" d="M434.5,247.3h-37v-37.1h37V247.3z M397.7,247h36.5v-36.5h-36.5V247z"/>
		<path class="st0" d="M434.5,100.2h-37v-37h37V100.2z M397.7,100h36.5V63.5h-36.5V100z"/>
		<path class="st0" d="M434.5,63.5h-37v-37h37V63.5z M397.7,63.2h36.5V26.7h-36.5V63.2z"/>
		<path class="st0" d="M434.5,137h-37v-37h37V137z M397.7,136.7h36.5v-36.5h-36.5V136.7z"/>
		<path class="st0" d="M140.4,137h-37v-37h37.1L140.4,137z M103.6,136.7h36.5v-36.5h-36.5L103.6,136.7z"/>
		<path class="st0" d="M177.1,137h-37v-37h37.1L177.1,137z M140.3,136.7h36.5v-36.5h-36.5L140.3,136.7z"/>
		<path class="green" d="M140.2,247.9c-0.4,0-0.7-0.3-0.7-0.7v0v-2.8c0-0.4,0.3-0.7,0.7-0.7c0.4,0,0.7,0.3,0.7,0.7v2.8
			C140.9,247.6,140.6,247.9,140.2,247.9z"/>
		<path class="green animated fadeInUp" d="M140.2,239.2c-0.4,0-0.7-0.3-0.7-0.7v0v-5.8c0-0.4,0.3-0.7,0.7-0.7c0.4,0,0.7,0.3,0.7,0.7v5.8
			C140.9,238.9,140.6,239.2,140.2,239.2z M140.2,227.6c-0.4,0-0.7-0.3-0.7-0.7c0,0,0,0,0,0v-5.8c0-0.4,0.3-0.7,0.7-0.7
			c0.4,0,0.7,0.3,0.7,0.7v5.8C140.9,227.3,140.6,227.6,140.2,227.6C140.2,227.6,140.2,227.6,140.2,227.6z M140.2,216
			c-0.4,0-0.7-0.3-0.7-0.7v0v-5.8c0-0.4,0.3-0.7,0.7-0.7c0.4,0,0.7,0.3,0.7,0.7v5.8C140.9,215.7,140.6,216,140.2,216
			C140.2,216,140.2,216,140.2,216L140.2,216z M140.2,204.4c-0.4,0-0.7-0.3-0.7-0.7v0v-5.8c0-0.4,0.3-0.7,0.7-0.7
			c0.4,0,0.7,0.3,0.7,0.7v5.8C140.9,204.1,140.6,204.4,140.2,204.4L140.2,204.4z M140.2,192.8c-0.4,0-0.7-0.3-0.7-0.7v0v-5.8
			c0-0.4,0.3-0.7,0.7-0.7c0.4,0,0.7,0.3,0.7,0.7v5.8C140.9,192.4,140.6,192.7,140.2,192.8C140.2,192.7,140.2,192.8,140.2,192.8
			L140.2,192.8z M140.2,181.1c-0.4,0-0.7-0.3-0.7-0.7v0v-5.8c0-0.4,0.3-0.7,0.7-0.7c0.4,0,0.7,0.3,0.7,0.7v5.8
			C140.9,180.8,140.6,181.1,140.2,181.1L140.2,181.1z M140.2,169.5c-0.4,0-0.7-0.3-0.7-0.7v0V163c0-0.4,0.3-0.7,0.7-0.7
			c0.4,0,0.7,0.3,0.7,0.7v5.8C140.9,169.2,140.6,169.5,140.2,169.5L140.2,169.5z M140.2,157.9c-0.4,0-0.7-0.3-0.7-0.7v0v-5.8
			c0-0.4,0.3-0.7,0.7-0.7c0.4,0,0.7,0.3,0.7,0.7v5.8C140.9,157.6,140.6,157.9,140.2,157.9L140.2,157.9z M140.2,146.3
			c-0.4,0-0.7-0.3-0.7-0.7c0,0,0,0,0,0v-5.8c0-0.4,0.3-0.7,0.7-0.7c0.4,0,0.7,0.3,0.7,0.7v5.8C140.9,146,140.6,146.3,140.2,146.3
			C140.2,146.3,140.2,146.3,140.2,146.3L140.2,146.3z M140.2,134.7c-0.4,0-0.7-0.3-0.7-0.7v0v-5.8c0-0.4,0.3-0.7,0.7-0.7
			c0.4,0,0.7,0.3,0.7,0.7v5.8C140.9,134.4,140.6,134.7,140.2,134.7L140.2,134.7z M140.2,123.1c-0.4,0-0.7-0.3-0.7-0.7v0v-5.8
			c0-0.4,0.3-0.7,0.7-0.7c0.4,0,0.7,0.3,0.7,0.7c0,0,0,0,0,0v5.8C140.9,122.7,140.6,123,140.2,123.1L140.2,123.1z M140.2,111.4
			c-0.4,0-0.7-0.3-0.7-0.7v0v-5.8c0-0.4,0.3-0.7,0.7-0.7c0.4,0,0.7,0.3,0.7,0.7v5.8C140.9,111.1,140.6,111.4,140.2,111.4
			L140.2,111.4z M140.2,99.8c-0.4,0-0.7-0.3-0.7-0.7c0,0,0,0,0,0v-5.8c0-0.4,0.3-0.7,0.7-0.7c0.4,0,0.7,0.3,0.7,0.7v5.8
			C140.9,99.5,140.6,99.8,140.2,99.8C140.2,99.8,140.2,99.8,140.2,99.8L140.2,99.8z M140.2,88.2c-0.4,0-0.7-0.3-0.7-0.7v0v-5.8
			c0-0.4,0.3-0.7,0.7-0.7c0.4,0,0.7,0.3,0.7,0.7c0,0,0,0,0,0v5.8C140.9,87.9,140.6,88.2,140.2,88.2L140.2,88.2z M140.2,76.6
			c-0.4,0-0.7-0.3-0.7-0.7v0v-5.8c0-0.4,0.3-0.7,0.7-0.7c0.4,0,0.7,0.3,0.7,0.7c0,0,0,0,0,0v5.8C140.9,76.3,140.6,76.6,140.2,76.6
			L140.2,76.6z M140.2,65c-0.4,0-0.7-0.3-0.7-0.7v0v-5.8c0-0.4,0.3-0.7,0.7-0.7c0.4,0,0.7,0.3,0.7,0.7v5.8
			C140.9,64.6,140.6,65,140.2,65C140.2,65,140.2,65,140.2,65L140.2,65z M140.2,53.4c-0.4,0-0.7-0.3-0.7-0.7c0,0,0,0,0,0v-5.8
			c0-0.4,0.3-0.7,0.7-0.7c0.4,0,0.7,0.3,0.7,0.7v5.8C140.9,53,140.6,53.3,140.2,53.4L140.2,53.4z M140.2,41.7
			c-0.4,0-0.7-0.3-0.7-0.7c0,0,0,0,0,0v-5.8c0-0.4,0.3-0.7,0.7-0.7c0.4,0,0.7,0.3,0.7,0.7V41C140.9,41.4,140.6,41.7,140.2,41.7
			C140.2,41.7,140.2,41.7,140.2,41.7L140.2,41.7z"/>
		<path class="green animated fadeInLeft" style="animation-delay: .5s;" d="M140.2,30.1c-0.4,0-0.7-0.3-0.7-0.7c0,0,0,0,0,0v-2.8c0-0.4,0.3-0.7,0.7-0.7c0.4,0,0.7,0.3,0.7,0.7v2.8
			C140.9,29.8,140.6,30.1,140.2,30.1z"/>
		<path class="green animated fadeInLeft" style="animation-delay: .5s;" d="M434.3,207.8c-1.2,0-2.2,0.8-2.5,1.9c-62.9-0.8-101.6-7.9-146.9-26.8c-37.3-15.6-68.7-37.2-93.5-64.1
			c-36.7-39.8-47.7-79.8-50-89.9c0.9-0.4,1.4-1.3,1.4-2.3c0-1.5-1.2-2.6-2.6-2.7c-1.5,0-2.6,1.2-2.7,2.6c0,1.4,1.1,2.5,2.4,2.6
			c2.4,10.3,13.5,50.5,50.4,90.5c24.9,27.1,56.6,48.7,94,64.4c45.5,19,84.3,26.2,147.4,26.9c0.4,1.4,1.8,2.2,3.2,1.9
			c1.4-0.4,2.2-1.8,1.9-3.2C436.5,208.6,435.5,207.7,434.3,207.8L434.3,207.8z"/>
		<path d="M434.4,246.4h-0.1l0,0H104.2V26.6c0-0.4-0.3-0.7-0.7-0.7c0,0,0,0,0,0h-9.2c-0.4,0-0.7,0.3-0.7,0.7c0,0.4,0.3,0.7,0.7,0.7
			h8.5v35.3h-8.5c-0.4,0-0.7,0.3-0.7,0.7c0,0.4,0.3,0.7,0.7,0.7l0,0h8.5v35.3h-8.5c-0.4,0-0.7,0.3-0.7,0.7c0,0.4,0.3,0.7,0.7,0.7
			h8.5v35.3h-8.5c-0.4,0-0.7,0.3-0.7,0.7c0,0.4,0.3,0.7,0.7,0.7h8.5v35.3h-8.5c-0.4,0-0.7,0.3-0.7,0.7c0,0.4,0.3,0.7,0.7,0.7h8.5
			v35.3h-8.5c-0.4,0-0.7,0.3-0.7,0.7c0,0.4,0.3,0.7,0.7,0.7h8.5v35.4h-8.5c-0.4,0-0.7,0.3-0.7,0.7c0,0.4,0.3,0.7,0.7,0.7h8.4v8.5
			c0,0.4,0.2,0.7,0.6,0.8c0.4,0,0.7-0.2,0.8-0.6c0-0.1,0-0.1,0-0.2v-8.5h35.3v8.5c0,0.4,0.3,0.7,0.7,0.7c0.4,0,0.7-0.3,0.7-0.7v-8.5
			h35.4v8.5c0,0.4,0.3,0.7,0.7,0.7c0.4,0,0.7-0.3,0.7-0.7v-8.5H213v8.5c0,0.4,0.3,0.7,0.7,0.7c0.4,0,0.7-0.3,0.7-0.7v-8.5h35.4v8.5
			c0,0.4,0.3,0.7,0.7,0.7c0.4,0,0.7-0.3,0.7-0.7v-8.5h35.4v8.5c0,0.4,0.3,0.7,0.7,0.7c0.4,0,0.7-0.3,0.7-0.7v-8.5h35.4v8.5
			c0,0.4,0.3,0.7,0.7,0.7c0.4,0,0.7-0.3,0.7-0.7v-8.5h35.4v8.5c0,0.4,0.3,0.7,0.7,0.7c0.4,0,0.7-0.3,0.7-0.7v-8.5H397v8.5
			c0,0.4,0.3,0.7,0.7,0.7c0.4,0,0.7-0.3,0.7-0.7v-8.5h35.4v8.5c0,0.4,0.3,0.7,0.7,0.7c0.4,0,0.7-0.3,0.7-0.7v-9.2
			C435.2,246.8,434.8,246.4,434.4,246.4C434.4,246.4,434.4,246.4,434.4,246.4z"/>
		<text transform="matrix(1 0 0 1 0 141.87)" class="st2 st3 animated fadeIn">Retention</text>
		<text transform="matrix(1 0 0 1 249.65 280.03)" class="st2 st3 animated fadeIn">Time</text>
		<text transform="matrix(1 0 0 1 248.24 125.19)" class="st4 st5 animated fadeIn" style="animation-delay: 1.5s">Forgetting curve</text>
		<text transform="matrix(1 0 0 1 124.99 10.26)" class="st4 st5 animated fadeIn" style="animation-delay: 1.75s">Learn</text>
	</g>
</g>
</svg>
