<?xml version="1.0" encoding="utf-8"?>
<!-- Generator: Adobe Illustrator 24.1.2, SVG Export Plug-In . SVG Version: 6.00 Build 0)  -->
<svg version="1.1" id="Layer_1" xmlns="http://www.w3.org/2000/svg" xmlns:xlink="http://www.w3.org/1999/xlink" x="0px" y="0px"
	 viewBox="0 0 438.5 283.7" style="enable-background:new 0 0 438.5 283.7;" xml:space="preserve">
<style type="text/css">
	.st0{fill:#E6E6E6;}
	.orange{fill:#F7B053;}
	.st2{font-family:'Raleway-Bold';}
	.st3{font-size:16px;}
	.green{fill:#9ECA7D;}
	.st5{font-family:'Raleway';}
	.st6{font-size:12px;}
</style>
<g id="Layer_2_1_">
	<g id="Layer_1-2">
		<path class="st0" d="M213.9,173.8h-37v-37.1h37V173.8z M177.1,173.5h36.5V137h-36.5L177.1,173.5z"/>
		<path class="st0" d="M250.6,173.8h-37v-37.1h37.1L250.6,173.8z M213.9,173.5h36.5V137h-36.5L213.9,173.5z"/>
		<path class="st0" d="M287.4,173.8h-37.1v-37.1h37.1V173.8z M250.7,173.5h36.5V137h-36.5L250.7,173.5z"/>
		<path class="st0" d="M324.2,173.8h-37v-37.1h37V173.8z M287.4,173.5h36.5V137h-36.5V173.5z"/>
		<path class="st0" d="M360.9,173.8h-37v-37.1h37V173.8z M324.2,173.5h36.5V137h-36.5V173.5z"/>
		<path class="st0" d="M140.4,173.8h-37v-37.1h37.1L140.4,173.8z M103.6,173.5h36.5V137h-36.5L103.6,173.5z"/>
		<path class="st0" d="M177.1,173.8h-37v-37.1h37.1L177.1,173.8z M140.3,173.5h36.5V137h-36.5L140.3,173.5z"/>
		<path class="st0" d="M213.9,210.5h-37v-37h37V210.5z M177.1,210.2h36.5v-36.5h-36.5L177.1,210.2z"/>
		<path class="st0" d="M250.6,210.5h-37v-37h37.1L250.6,210.5z M213.9,210.2h36.5v-36.5h-36.5L213.9,210.2z"/>
		<path class="st0" d="M287.4,210.5h-37.1v-37h37.1V210.5z M250.7,210.2h36.5v-36.5h-36.5L250.7,210.2z"/>
		<path class="st0" d="M324.2,210.5h-37v-37h37V210.5z M287.4,210.2h36.5v-36.5h-36.5V210.2z"/>
		<path class="st0" d="M360.9,210.5h-37v-37h37V210.5z M324.2,210.2h36.5v-36.5h-36.5V210.2z"/>
		<path class="st0" d="M140.4,210.5h-37v-37h37.1L140.4,210.5z M103.6,210.2h36.5v-36.5h-36.5L103.6,210.2z"/>
		<path class="st0" d="M177.1,210.5h-37v-37h37.1L177.1,210.5z M140.3,210.2h36.5v-36.5h-36.5L140.3,210.2z"/>
		<path class="st0" d="M213.9,247.3h-37v-37.1h37V247.3z M177.1,247h36.5v-36.5h-36.5V247z"/>
		<path class="st0" d="M250.6,247.3h-37v-37.1h37.1L250.6,247.3z M213.9,247h36.5v-36.5h-36.5V247z"/>
		<path class="st0" d="M287.4,247.3h-37.1v-37.1h37.1V247.3z M250.6,247h36.5v-36.5h-36.5V247z"/>
		<path class="st0" d="M324.2,247.3h-37v-37.1h37V247.3z M287.4,247h36.5v-36.5h-36.5V247z"/>
		<path class="st0" d="M360.9,247.3h-37v-37.1h37V247.3z M324.2,247h36.5v-36.5h-36.5V247z"/>
		<path class="st0" d="M140.4,247.3h-37v-37.1h37.1L140.4,247.3z M103.6,247h36.5v-36.5h-36.5V247z"/>
		<path class="st0" d="M177.1,247.3h-37v-37.1h37.1L177.1,247.3z M140.4,247h36.5v-36.5h-36.5V247z"/>
		<path class="st0" d="M213.9,100.2h-37v-37h37V100.2z M177.1,100h36.5V63.5h-36.5V100z"/>
		<path class="st0" d="M250.6,100.2h-37v-37h37.1L250.6,100.2z M213.9,100h36.5V63.5h-36.5V100z"/>
		<path class="st0" d="M287.4,100.2h-37.1v-37h37.1V100.2z M250.6,100h36.5V63.5h-36.5V100z"/>
		<path class="st0" d="M324.2,100.2h-37v-37h37V100.2z M287.4,100h36.5V63.5h-36.5V100z"/>
		<path class="st0" d="M360.9,100.2h-37v-37h37V100.2z M324.2,100h36.5V63.5h-36.5V100z"/>
		<path class="st0" d="M140.4,100.2h-37v-37h37.1L140.4,100.2z M103.6,100h36.5V63.5h-36.5V100z"/>
		<path class="st0" d="M177.1,100.2h-37v-37h37.1L177.1,100.2z M140.4,100h36.5V63.5h-36.5V100z"/>
		<path class="st0" d="M177.1,63.5h-37v-37h37.1L177.1,63.5z M140.3,63.2h36.5V26.7h-36.5L140.3,63.2z"/>
		<path class="st0" d="M213.9,137h-37v-37h37V137z M177.1,136.7h36.5v-36.5h-36.5L177.1,136.7z"/>
		<path class="st0" d="M250.6,137h-37v-37h37.1L250.6,137z M213.9,136.7h36.5v-36.5h-36.5L213.9,136.7z"/>
		<path class="st0" d="M287.4,137h-37.1v-37h37.1V137z M250.7,136.7h36.5v-36.5h-36.5L250.7,136.7z"/>
		<path class="st0" d="M324.2,137h-37v-37h37V137z M287.4,136.7h36.5v-36.5h-36.5V136.7z"/>
		<path class="st0" d="M360.9,137h-37v-37h37V137z M324.2,136.7h36.5v-36.5h-36.5V136.7z"/>
		<path class="st0" d="M397.7,173.8h-37v-37.1h37V173.8z M360.9,173.5h36.5V137h-36.5V173.5z"/>
		<path class="st0" d="M397.7,210.5h-37v-37h37V210.5z M360.9,210.2h36.5v-36.5h-36.5V210.2z"/>
		<path class="st0" d="M397.7,247.3h-37v-37.1h37V247.3z M360.9,247h36.5v-36.5h-36.5V247z"/>
		<path class="st0" d="M397.7,100.2h-37v-37h37V100.2z M360.9,100h36.5V63.5h-36.5V100z"/>
		<path class="st0" d="M213.9,63.5h-37v-37h37V63.5z M177.1,63.2h36.5V26.7h-36.5L177.1,63.2z"/>
		<path class="st0" d="M250.6,63.5h-37v-37h37.1L250.6,63.5z M213.9,63.2h36.5V26.7h-36.5L213.9,63.2z"/>
		<path class="st0" d="M287.4,63.5h-37.1v-37h37.1V63.5z M250.7,63.2h36.5V26.7h-36.5L250.7,63.2z"/>
		<path class="st0" d="M324.2,63.5h-37v-37h37V63.5z M287.4,63.2h36.5V26.7h-36.5V63.2z"/>
		<path class="st0" d="M360.9,63.5h-37v-37h37V63.5z M324.2,63.2h36.5V26.7h-36.5V63.2z"/>
		<path class="st0" d="M140.4,63.5h-37v-37h37.1L140.4,63.5z M103.6,63.2h36.5V26.7h-36.5L103.6,63.2z"/>
		<path class="st0" d="M397.7,63.5h-37v-37h37V63.5z M360.9,63.2h36.5V26.7h-36.5V63.2z"/>
		<path class="st0" d="M397.7,137h-37v-37h37V137z M360.9,136.7h36.5v-36.5h-36.5V136.7z"/>
		<path class="st0" d="M434.5,173.8h-37v-37.1h37V173.8z M397.7,173.5h36.5V137h-36.5V173.5z"/>
		<path class="st0" d="M434.5,210.5h-37v-37h37V210.5z M397.7,210.2h36.5v-36.5h-36.5V210.2z"/>
		<path class="st0" d="M434.5,247.3h-37v-37.1h37V247.3z M397.7,247h36.5v-36.5h-36.5V247z"/>
		<path class="st0" d="M434.5,100.2h-37v-37h37V100.2z M397.7,100h36.5V63.5h-36.5V100z"/>
		<path class="st0" d="M434.5,63.5h-37v-37h37V63.5z M397.7,63.2h36.5V26.7h-36.5V63.2z"/>
		<path class="st0" d="M434.5,137h-37v-37h37V137z M397.7,136.7h36.5v-36.5h-36.5V136.7z"/>
		<path class="st0" d="M140.4,137h-37v-37h37.1L140.4,137z M103.6,136.7h36.5v-36.5h-36.5L103.6,136.7z"/>
		<path class="st0" d="M177.1,137h-37v-37h37.1L177.1,137z M140.3,136.7h36.5v-36.5h-36.5L140.3,136.7z"/>
		<path class="orange animated fadeIn" style="animation-delay: 2s;" d="M417.2,137.2c-6,0-12.5-0.1-19.7-0.5c-0.2,0-0.3-0.1-0.3-0.3c0,0,0,0,0,0c0-0.2,0.1-0.3,0.3-0.3
			c10.2,0.6,19.2,0.5,27,0.5c3.5,0,6.7-0.1,9.7,0c0.2,0,0.3,0.1,0.3,0.3c0,0,0,0,0,0c0,0.2-0.1,0.3-0.3,0.3l0,0c-2.9,0-6.2,0-9.7,0
			C422.3,137.2,419.8,137.2,417.2,137.2z"/>
		<path class="orange animated fadeIn" style="animation-delay: 1s;" d="M360.8,247.4c0,0-0.1,0-0.1,0c-0.8-0.4-81.8-43.3-147.2-110.3c-0.1-0.1-0.1-0.3,0-0.4c0,0,0,0,0,0
			c0.1-0.1,0.3-0.1,0.4,0c65.3,66.9,146.2,109.8,147,110.2c0.1,0.1,0.2,0.2,0.1,0.4c0,0,0,0,0,0C361,247.4,360.9,247.4,360.8,247.4z
			"/>
		<path class="orange animated fadeIn" d="M213.7,247.4c-0.1,0-0.1,0-0.2-0.1c-0.4-0.4-40.4-36-73.5-105.5c-0.1-0.1,0-0.3,0.1-0.4c0,0,0,0,0,0
			c0.1-0.1,0.3,0,0.4,0.1c0,0,0,0,0,0c33.1,69.4,73,105,73.4,105.3c0.1,0.1,0.1,0.3,0,0.4c0,0,0,0,0,0
			C213.9,247.4,213.8,247.4,213.7,247.4z"/>
		<path d="M434.5,246.4c-0.1,0-0.1,0-0.2,0l0,0H104.2V26.6c0-0.4-0.3-0.7-0.7-0.7h-9.2c-0.4,0-0.7,0.3-0.7,0.7
			c0,0.4,0.3,0.7,0.7,0.7h8.5v35.3h-8.5c-0.4,0-0.7,0.3-0.7,0.7c0,0.4,0.3,0.7,0.7,0.7l0,0h8.5v35.3h-8.5c-0.4,0-0.7,0.3-0.7,0.7
			c0,0.4,0.3,0.7,0.7,0.7h8.5v35.3h-8.5c-0.4,0-0.7,0.3-0.7,0.7c0,0.4,0.3,0.7,0.7,0.7h8.5v35.3h-8.5c-0.4,0-0.7,0.3-0.7,0.7
			c0,0.4,0.3,0.7,0.7,0.7h8.5v35.3h-8.5c-0.4,0-0.7,0.3-0.7,0.7c0,0.4,0.3,0.7,0.7,0.7h8.5v35.4h-8.5c-0.4,0-0.7,0.3-0.7,0.7
			c0,0.4,0.3,0.7,0.7,0.7h8.5v8.5c0,0.4,0.3,0.7,0.7,0.7c0.4,0,0.7-0.3,0.7-0.7v-8.5h35.3v8.5c0,0.4,0.3,0.7,0.7,0.7
			c0.4,0,0.7-0.3,0.7-0.7v-8.5h35.4v8.5c0,0.4,0.3,0.7,0.7,0.7c0.4,0,0.7-0.3,0.7-0.7v-8.5h35.4v8.5c0,0.4,0.3,0.7,0.7,0.7
			s0.7-0.3,0.7-0.7c0,0,0,0,0,0v-8.5h35.4v8.5c0,0.4,0.3,0.7,0.7,0.7c0.4,0,0.7-0.3,0.7-0.7v-8.5h35.4v8.5c0,0.4,0.3,0.7,0.7,0.7
			c0.4,0,0.7-0.3,0.7-0.7v-8.5h35.4v8.5c0,0.4,0.3,0.7,0.7,0.7c0.4,0,0.7-0.3,0.7-0.7v-8.5h35.4v8.5c0,0.4,0.3,0.7,0.7,0.7
			c0.4,0,0.7-0.3,0.7-0.7v-8.5H397v8.5c0,0.4,0.3,0.7,0.7,0.7c0.4,0,0.7-0.3,0.7-0.7v-8.5h35.4v8.5c0,0.4,0.3,0.7,0.7,0.7
			c0.4,0,0.7-0.3,0.7-0.7v-9.2C435.2,246.8,434.9,246.5,434.5,246.4z"/>
		<text transform="matrix(1 0 0 1 249.76 280.03)" class="st2 st3">Time</text>
		<path class="green animated fadeIn" style="animation-delay: 3s;" d="M434.3,61.3c-0.7,0-1.4,0.3-1.9,0.8c-14.2-9.2-25.3-20.5-33-33.7c1-1,1-2.7,0-3.7c-1-1-2.7-1-3.7,0
			c-1,1-1,2.7,0,3.7c0.5,0.5,1.2,0.8,1.9,0.8c0.2,0,0.4,0,0.6-0.1c7.8,13.4,19.1,24.9,33.6,34.2c0,0.2-0.1,0.4-0.1,0.6
			c0,1.5,1.2,2.7,2.6,2.7c1.5,0,2.7-1.2,2.7-2.6S435.8,61.3,434.3,61.3C434.3,61.3,434.3,61.3,434.3,61.3z"/>
		<path class="green animated fadeIn" style="animation-delay: 2.5s;" d="M397.6,137.1c-0.4,0-0.7-0.3-0.7-0.7v-2.8c0-0.4,0.3-0.7,0.7-0.7c0.4,0,0.7,0.3,0.7,0.7v2.8
			C398.3,136.8,398,137.1,397.6,137.1L397.6,137.1z"/>
		<path class="green animated fadeIn" style="animation-delay: 2.5s;" d="M397.6,128.8c-0.4,0-0.7-0.3-0.7-0.7v-5.5c0-0.4,0.3-0.7,0.7-0.7c0.4,0,0.7,0.3,0.7,0.7l0,0v5.5
			C398.3,128.5,398,128.8,397.6,128.8L397.6,128.8z M397.6,117.8c-0.4,0-0.7-0.3-0.7-0.7v-5.5c0-0.4,0.3-0.7,0.7-0.7
			c0.4,0,0.7,0.3,0.7,0.7l0,0v5.5C398.3,117.5,398,117.8,397.6,117.8C397.6,117.8,397.6,117.8,397.6,117.8L397.6,117.8z
			 M397.6,106.8c-0.4,0-0.7-0.3-0.7-0.7v-5.5c0-0.4,0.3-0.7,0.7-0.7c0.4,0,0.7,0.3,0.7,0.7l0,0v5.5
			C398.3,106.5,398,106.8,397.6,106.8C397.6,106.9,397.6,106.9,397.6,106.8L397.6,106.8z M397.6,95.8c-0.4,0-0.7-0.3-0.7-0.7v-5.4
			c0-0.4,0.3-0.7,0.7-0.7c0.4,0,0.7,0.3,0.7,0.7l0,0v5.5c0,0.4-0.3,0.7-0.7,0.7c0,0,0,0,0,0V95.8z M397.6,84.8
			c-0.4,0-0.7-0.3-0.7-0.7v-5.3c0-0.4,0.3-0.7,0.7-0.7c0.4,0,0.7,0.3,0.7,0.7v5.5c0,0.4-0.3,0.7-0.7,0.7c0,0,0,0,0,0V84.8z
			 M397.6,73.8c-0.4,0-0.7-0.3-0.7-0.7v-5.3c0-0.4,0.3-0.7,0.7-0.7c0.4,0,0.7,0.3,0.7,0.7l0,0v5.5c0,0.4-0.3,0.7-0.7,0.7
			c0,0,0,0,0,0V73.8z M397.6,62.8c-0.4,0-0.7-0.3-0.7-0.7v-5.3c0-0.4,0.3-0.7,0.7-0.7c0.4,0,0.7,0.3,0.7,0.7v5.5
			c0,0.4-0.3,0.7-0.7,0.7c0,0,0,0,0,0V62.8z M397.6,51.8c-0.4,0-0.7-0.3-0.7-0.7v-5.2c0-0.4,0.3-0.7,0.7-0.7c0.4,0,0.7,0.3,0.7,0.7
			l0,0v5.5c0,0.4-0.3,0.7-0.7,0.7V51.8z M397.6,40.8c-0.4,0-0.7-0.3-0.7-0.7v-5.2c0-0.4,0.3-0.7,0.7-0.7c0.4,0,0.7,0.3,0.7,0.7v5.5
			c0,0.4-0.3,0.7-0.7,0.7c0,0,0,0,0,0V40.8z"/>
		<path class="green animated fadeIn" style="animation-delay: 2.5s;" d="M397.6,30.1c-0.4,0-0.7-0.3-0.7-0.7v-2.8c0-0.4,0.3-0.7,0.7-0.7c0.4,0,0.7,0.3,0.7,0.7v2.8
			C398.3,29.8,398,30.1,397.6,30.1L397.6,30.1z"/>
		<path class="green animated fadeIn" style="animation-delay: 2s;" d="M397.6,133.8c-1.1,0-2.1,0.7-2.5,1.7c-29.3-2.8-70.6-9.7-106.1-26.2c-40.2-18.7-65.1-45.7-74-80.4
			c1.3-0.7,1.7-2.3,1-3.6c-0.7-1.3-2.3-1.7-3.6-1c-1.3,0.7-1.7,2.3-1,3.6c0.5,0.8,1.3,1.3,2.2,1.3c9,35.1,34.1,62.5,74.7,81.3
			c35.8,16.6,77.2,23.5,106.6,26.3c0.3,1.4,1.6,2.4,3.1,2.1c1.4-0.3,2.4-1.6,2.1-3.1C400,134.7,398.9,133.8,397.6,133.8L397.6,133.8
			z"/>
		<path class="green animated fadeIn" style="animation-delay: 2s;" d="M213.7,137.6c-0.4,0-0.7-0.3-0.7-0.7v0V134c0-0.4,0.3-0.7,0.7-0.7c0.4,0,0.7,0.3,0.7,0.7v2.8
			C214.5,137.2,214.2,137.6,213.7,137.6C213.8,137.6,213.8,137.6,213.7,137.6z"/>
		<path class="green animated fadeIn" style="animation-delay: 1.5s;" d="M213.7,129.2c-0.4,0-0.7-0.3-0.7-0.7v0V123c0-0.4,0.3-0.7,0.7-0.7c0.4,0,0.7,0.3,0.7,0.7v5.5
			C214.5,128.9,214.1,129.2,213.7,129.2C213.7,129.2,213.7,129.2,213.7,129.2z M213.7,118.2c-0.4,0-0.7-0.3-0.7-0.7v0V112
			c0-0.4,0.3-0.7,0.7-0.7c0.4,0,0.7,0.3,0.7,0.7c0,0,0,0,0,0v5.5C214.4,117.9,214.1,118.2,213.7,118.2L213.7,118.2z M213.7,107.2
			c-0.4,0-0.7-0.3-0.7-0.7c0,0,0,0,0,0V101c0-0.4,0.3-0.7,0.7-0.7c0.4,0,0.7,0.3,0.7,0.7c0,0,0,0,0,0v5.5
			C214.4,106.9,214.1,107.2,213.7,107.2C213.7,107.2,213.7,107.2,213.7,107.2L213.7,107.2z M213.7,96.2c-0.4,0-0.7-0.3-0.7-0.7v0V90
			c0-0.4,0.3-0.7,0.7-0.7c0.4,0,0.7,0.3,0.7,0.7v5.5C214.4,95.9,214.1,96.2,213.7,96.2L213.7,96.2z M213.7,85.2
			c-0.4,0-0.7-0.3-0.7-0.7v0V79c0-0.4,0.3-0.7,0.7-0.7c0.4,0,0.7,0.3,0.7,0.7c0,0,0,0,0,0v5.5C214.4,84.9,214.1,85.2,213.7,85.2
			L213.7,85.2z M213.7,74.2c-0.4,0-0.7-0.3-0.7-0.7c0,0,0,0,0,0V68c0-0.4,0.3-0.7,0.7-0.7c0.4,0,0.7,0.3,0.7,0.7v5.5
			C214.4,73.9,214.1,74.2,213.7,74.2L213.7,74.2z M213.7,63.2c-0.4,0-0.7-0.3-0.7-0.7c0,0,0,0,0,0V57c0-0.4,0.3-0.7,0.7-0.7
			c0.4,0,0.7,0.3,0.7,0.7v5.5C214.4,62.9,214.1,63.2,213.7,63.2L213.7,63.2z M213.7,52.2c-0.4,0-0.7-0.3-0.7-0.7c0,0,0,0,0,0v-5.6
			c0-0.4,0.3-0.7,0.7-0.7c0.4,0,0.7,0.3,0.7,0.7v5.5C214.4,51.8,214.1,52.1,213.7,52.2L213.7,52.2z M213.7,41.2
			c-0.4,0-0.7-0.3-0.7-0.7c0,0,0,0,0,0v-5.6c0-0.4,0.3-0.7,0.7-0.7c0.4,0,0.7,0.3,0.7,0.7v5.5c0,0.4-0.3,0.7-0.7,0.7c0,0,0,0,0,0
			V41.2z"/>
		<path class="green animated fadeIn" style="animation-delay: 1.5s;" d="M213.7,30.1c-0.4,0-0.7-0.3-0.7-0.7c0,0,0,0,0,0v-2.8c0-0.4,0.3-0.7,0.7-0.7c0.4,0,0.7,0.3,0.7,0.7
			c0,0,0,0,0,0v2.8C214.4,29.8,214.1,30.1,213.7,30.1z"/>
		<path class="green animated fadeIn" style="animation-delay: 1s;" d="M213.7,134.2c-0.5,0-0.9,0.1-1.3,0.4c-34-35.2-57.7-70.8-70.7-105.9c1.2-0.9,1.4-2.5,0.6-3.7
			c-0.9-1.2-2.5-1.4-3.7-0.6s-1.4,2.5-0.6,3.7c0.5,0.7,1.3,1.1,2.1,1.1h0.2c13,35.3,36.9,71.1,71,106.4c-0.2,0.4-0.3,0.8-0.3,1.2
			c0,1.5,1.2,2.6,2.6,2.6s2.6-1.2,2.6-2.6C216.4,135.4,215.2,134.2,213.7,134.2L213.7,134.2L213.7,134.2z"/>
		<path class="green animated fadeIn" d="M140.2,142.4c-0.4,0-0.7-0.3-0.7-0.7v0v-2.8c0-0.4,0.3-0.7,0.7-0.7c0.4,0,0.7,0.3,0.7,0.7v2.8
			C140.9,142.1,140.6,142.4,140.2,142.4z"/>
		<path class="green animated fadeIn" style="animation-delay: .5s;" d="M140.2,133.8c-0.4,0-0.7-0.3-0.7-0.7c0,0,0,0,0,0v-5.8c0-0.4,0.3-0.7,0.7-0.7c0.4,0,0.7,0.3,0.7,0.7
			c0,0,0,0,0,0v5.8C140.9,133.5,140.6,133.8,140.2,133.8C140.2,133.8,140.2,133.8,140.2,133.8z M140.2,122.3c-0.4,0-0.7-0.3-0.7-0.7
			v0v-5.8c0-0.4,0.3-0.7,0.7-0.7c0.4,0,0.7,0.3,0.7,0.7c0,0,0,0,0,0v5.8C140.9,122,140.6,122.3,140.2,122.3z M140.2,110.8
			c-0.4,0-0.7-0.3-0.7-0.7v0v-5.8c0-0.4,0.3-0.7,0.7-0.7c0.4,0,0.7,0.3,0.7,0.7c0,0,0,0,0,0v5.8
			C140.9,110.5,140.6,110.8,140.2,110.8z M140.2,99.3c-0.4,0-0.7-0.3-0.7-0.7v0v-5.8c0-0.4,0.3-0.7,0.7-0.7c0.4,0,0.7,0.3,0.7,0.7
			c0,0,0,0,0,0v5.8C140.9,98.9,140.6,99.3,140.2,99.3z M140.2,87.7c-0.4,0-0.7-0.3-0.7-0.7v0v-5.8c0-0.4,0.3-0.7,0.7-0.7
			c0.4,0,0.7,0.3,0.7,0.7c0,0,0,0,0,0V87C140.9,87.4,140.6,87.7,140.2,87.7C140.2,87.7,140.2,87.7,140.2,87.7z M140.2,76.2
			c-0.4,0-0.7-0.3-0.7-0.7v0v-5.8c0-0.4,0.3-0.7,0.7-0.7c0.4,0,0.7,0.3,0.7,0.7v5.8C140.9,75.9,140.6,76.2,140.2,76.2z M140.2,64.7
			c-0.4,0-0.7-0.3-0.7-0.7c0,0,0,0,0,0v-5.8c0-0.4,0.3-0.7,0.7-0.7c0.4,0,0.7,0.3,0.7,0.7V64C140.9,64.4,140.6,64.7,140.2,64.7
			L140.2,64.7z M140.2,53.2c-0.4,0-0.7-0.3-0.7-0.7c0,0,0,0,0,0v-5.8c0-0.4,0.3-0.7,0.7-0.7c0.4,0,0.7,0.3,0.7,0.7v5.8
			C140.9,52.8,140.6,53.2,140.2,53.2L140.2,53.2z M140.2,41.6c-0.4,0-0.7-0.3-0.7-0.7c0,0,0,0,0,0v-5.8c0-0.4,0.3-0.7,0.7-0.7
			c0.4,0,0.7,0.3,0.7,0.7v5.8C140.9,41.3,140.6,41.6,140.2,41.6L140.2,41.6z"/>
		<path class="green animated fadeIn" style="animation-delay: .5s;" d="M140.2,30.1c-0.4,0-0.7-0.3-0.7-0.7c0,0,0,0,0,0v-2.8c0-0.4,0.3-0.7,0.7-0.7c0.4,0,0.7,0.3,0.7,0.7v2.8
			C140.9,29.8,140.6,30.1,140.2,30.1z"/>
		<path class="green animated fadeIn" d="M140.3,139.1c-0.1,0-0.3,0-0.4,0C123.5,104,111.6,67,104.6,28.9c0.9-0.4,1.5-1.4,1.5-2.4
			c0-1.5-1.2-2.7-2.6-2.7s-2.7,1.2-2.7,2.6c0,1.4,1,2.5,2.4,2.7c7,38.2,18.9,75.3,35.3,110.5c-1.1,0.9-1.2,2.6-0.3,3.7
			c0.5,0.6,1.2,0.9,2,0.9c1.5,0.1,2.7-1,2.8-2.5c0.1-1.5-1-2.7-2.5-2.8C140.5,139.1,140.4,139.1,140.3,139.1L140.3,139.1z"/>
		<text transform="matrix(1 0 0 1 0 141.87)" class="st2 st3">Retention</text>
		<text transform="matrix(1 0 0 1 249.76 280.03)" class="st2 st3">Time</text>
		<text transform="matrix(1 0 0 1 87.37 10.26)" class="st5 st6">Learn</text>
		<text transform="matrix(1 0 0 1 138.58 10.26)" class="st5 st6">Review</text>
		<text transform="matrix(1 0 0 1 212.11 10.26)" class="st5 st6">Review</text>
		<text transform="matrix(1 0 0 1 398.36 10.26)" class="st5 st6">Review</text>
	</g>
</g>
</svg>
