<?xml version="1.0" encoding="utf-8"?>
<!-- Generator: Adobe Illustrator 24.1.2, SVG Export Plug-In . SVG Version: 6.00 Build 0)  -->
<svg version="1.1" id="Layer_1" xmlns="http://www.w3.org/2000/svg" xmlns:xlink="http://www.w3.org/1999/xlink" x="0px" y="0px"
	 viewBox="0 0 435.4 257.7" style="enable-background:new 0 0 435.4 257.7;" xml:space="preserve">
<style type="text/css">
	.st0{fill:#E6E6E6;}
	.green{fill:#9ECA7D;}
	.st2{font-family:'Raleway-Bold';}
	.st3{font-size:16px;}
</style>
<g id="Layer_2_1_">
	<g id="Layer_1-2">
		<path class="st0" d="M434.7,220.9l-0.1-36.9v-0.1l0,0l-0.1-36.6v-0.1l0,0l-0.1-36.6v-0.2l0,0l-0.1-36.6v-0.1l0,0L434.3,37v-0.2
			l0,0l-0.1-36.7V0l-36.8,0.1h-0.3l-36.5,0.1h-0.3L324,0.2h-0.3l-36.5,0.1h-0.3l-36.5,0.1h-0.3l-36.5,0.1h-0.3l-36.5,0.1h-0.3
			l-36.5,0.1h-0.3l-36.6,0.1h-0.1l0.1,36.8l0,0v0.3l0,0l0.1,36.5l0,0v0.3l0,0l0.1,36.5l0,0v0.3l0,0l0.1,36.5l0,0v0.2l0,0l0.1,36.5
			l0,0v0.3l0,0l0.1,36.6v0.1l36.8-0.1h0.3l36.5-0.1h0.3l36.5-0.1h0.3l36.5-0.1h0.3l36.5-0.1h0.3l36.5-0.1h0.3l36.5-0.1h0.3l36.5-0.1
			h0.3l36.6-0.1L434.7,220.9z M361,147.2v-24.3v-12.2l36.5-0.1l0,24.3v12.2L361,147.2z M287.4,123.1v-12.2l36.5-0.1l0,24.3v12.2
			l-36.5,0.1L287.4,123.1z M360.6,98.3v12.2l-36.5,0.1l0-24.3V74l36.5,0L360.6,98.3z M323.9,98.4v12.2l-36.5,0.1l0-24.3V74.1
			l36.5-0.1L323.9,98.4z M287.1,98.4v12.2l-36.5,0.1l-0.1-36.5l36.5-0.1L287.1,98.4z M250.3,110.7l-36.5,0.1l-0.1-36.5l36.5-0.1
			L250.3,110.7z M213.6,110.8l-36.5,0.1L177,74.4l36.5-0.1L213.6,110.8z M177.1,111.1l36.5-0.1l0.1,36.5l-36.5,0.1L177.1,111.1z
			 M213.9,111l36.5-0.1l0.1,36.5l-36.5,0.1L213.9,111z M250.6,111l36.5-0.1l0,24.3v12.2l-36.5,0.1L250.6,111z M324.2,123v-12.2
			l36.5-0.1l0.1,24.3v12.2l-36.5,0.1L324.2,123z M361,110.4l0-24.3V74l36.5-0.1v24.3v12.2L361,110.4z M397.4,61.4v12.2l-36.5,0.1
			l0-24.3V37.2l36.5-0.1L397.4,61.4z M360.6,61.5v12.2l-36.5,0.1l0-24.3V37.3l36.5-0.1L360.6,61.5z M323.9,61.6v12.2l-36.5,0.1V49.6
			V37.4l36.5-0.1V61.6z M287,61.7v12.2l-36.5,0.1l-0.1-36.5l36.6-0.1V61.7z M250.3,73.9L213.8,74l-0.1-36.5l36.5-0.1L250.3,73.9z
			 M213.5,74l-36.5,0.1L177,37.6l36.5-0.1L213.5,74z M176.8,74.1l-36.5,0.1l-0.1-36.5l36.5-0.1L176.8,74.1z M176.8,74.4l0.1,36.5
			l-36.5,0.1l-0.1-36.5L176.8,74.4z M176.8,111.1l0.1,36.5l-36.5,0.1l-0.1-36.5L176.8,111.1z M176.9,147.9l0.1,36.5l-36.5,0.1
			l-0.1-36.4L176.9,147.9z M177.2,147.9l36.5-0.1l0.1,36.5l-36.5,0.1L177.2,147.9z M214,147.8l36.5-0.1l0.1,36.5l-36.5,0.1
			L214,147.8z M250.8,147.7l36.5-0.1l0,24.3v12.2l-36.5,0.1L250.8,147.7z M287.5,159.8v-12.2l36.5-0.1v24.3V184l-36.5,0.1V159.8z
			 M324.3,159.7v-12.2l36.5-0.1l0,24.3V184l-36.5,0.1L324.3,159.7z M361.1,159.7v-12.2l36.5-0.1l0,24.3v12.2l-36.5,0.1L361.1,159.7z
			 M397.8,159.6v-12.2l36.5-0.1l0.1,36.5l-36.5,0.1L397.8,159.6z M397.8,122.8v-12.2l36.5-0.1l0.1,36.5l-36.5,0.1L397.8,122.8z
			 M397.7,86.1V73.9l36.5-0.1l0.1,36.5l-36.5,0.1L397.7,86.1z M397.6,49.3V37.1L434,37l0.1,36.5l-36.5,0.1L397.6,49.3z M140,74.2
			l-36.5,0.1l-0.1-36.5l36.5-0.1L140,74.2z M140.1,110.9l-36.5,0.1l-0.1-36.5l36.5-0.1L140.1,110.9z M140.2,147.7l-36.5,0.1
			l-0.1-36.5l36.5-0.1L140.2,147.7z M140.2,184.4l-36.5,0.1l-0.1-36.5l36.5-0.1L140.2,184.4z M287.3,184.4v24.3v12.2l-36.5,0.1
			l-0.1-36.5L287.3,184.4z M434,36.8l-36.5,0.1l0-24.3V0.4L434,0.3V36.8z M397.2,24.7v12.2l-36.5,0.1l0-24.3V0.4l36.5-0.1
			L397.2,24.7z M360.4,24.7v12.2L324,37V12.7V0.5l36.4-0.1L360.4,24.7z M323.7,24.8V37l-36.5,0.1l-0.1-24.3V0.6l36.5-0.1L323.7,24.8
			z M286.9,0.6l0.1,24.3v12.2l-36.5,0.1l-0.1-36.5L286.9,0.6z M250.1,0.7l0.1,36.5l-36.5,0.1l-0.1-36.5L250.1,0.7z M213.4,0.8
			l0.1,36.5L177,37.3l-0.1-36.5L213.4,0.8z M176.6,0.8l0.1,36.5l-36.5,0.1l-0.1-36.5L176.6,0.8z M139.9,0.9l0.1,36.5l-36.5,0.1
			L103.4,1L139.9,0.9z M103.9,221.3l-0.1-36.5l36.5-0.1l0.1,36.5L103.9,221.3z M140.6,221.2l-0.1-36.5l36.5-0.1l0.1,36.5
			L140.6,221.2z M177.4,221.1l-0.1-36.5l36.5-0.1l0.1,36.5L177.4,221.1z M214.1,221l-0.1-36.5l36.5-0.1l0.1,36.5L214.1,221z
			 M287.6,196.6v-12.2l36.5-0.1l0.1,24.3v12.2l-36.5,0.1L287.6,196.6z M324.4,196.5v-12.2l36.5-0.1l0,24.3v12.2l-36.5,0.1
			L324.4,196.5z M361.1,196.4v-12.2l36.5-0.1l0,24.3v12.2l-36.5,0.1L361.1,196.4z M398,220.7l0-24.3v-12.2l36.5-0.1l0.1,36.5
			L398,220.7z"/>
		<path class="green animated fadeInUp" d="M397.4,34.3c-1.5,0-2.6,1.2-2.6,2.7c0,0,0,0,0,0c0,0.5,0.1,0.9,0.4,1.3L362,71.5c-0.4-0.2-0.8-0.3-1.3-0.3
			c-1.2,0-2.2,0.8-2.5,1.9l-31.7,0.1c-0.4-1.4-1.9-2.2-3.3-1.8c-1.1,0.3-1.9,1.4-1.9,2.5c0,0.5,0.1,0.9,0.4,1.3l-33.1,33.2
			c-0.4-0.2-0.8-0.3-1.3-0.3c-1.2,0-2.2,0.8-2.5,1.9l-31.7,0.1c-0.4-1.4-1.9-2.2-3.3-1.8c-1.1,0.3-1.9,1.4-1.9,2.5
			c0,0.5,0.1,0.9,0.4,1.3l-33.1,33.2c-0.4-0.2-0.8-0.3-1.3-0.4c-1.2,0-2.2,0.8-2.5,1.9l-31.7,0.1c-0.4-1.4-1.8-2.2-3.2-1.9
			c-1.2,0.3-2,1.4-1.9,2.6c0,0.5,0.1,0.9,0.4,1.3l-33.1,33.2c-1.3-0.7-2.9-0.3-3.6,1c-0.2,0.4-0.3,0.8-0.3,1.3
			c0,1.5,1.1,2.7,2.6,2.7c1.5,0,2.7-1.1,2.7-2.6c0-0.5-0.1-1-0.4-1.4l33.1-33.3c1.2,0.7,2.8,0.3,3.6-1c0.1-0.2,0.2-0.4,0.3-0.6
			l31.7-0.1c0.4,1.4,1.8,2.3,3.2,1.9c1.4-0.4,2.3-1.8,1.9-3.2c-0.1-0.2-0.2-0.5-0.3-0.7l33.1-33.2c0.4,0.2,0.8,0.3,1.3,0.3
			c1.2,0,2.2-0.8,2.5-1.9l31.7-0.1c0.4,1.4,1.9,2.2,3.3,1.8c1.1-0.3,1.9-1.4,1.9-2.5c0-0.5-0.1-0.9-0.4-1.3l33.1-33.2
			c1.2,0.7,2.8,0.3,3.6-0.9c0.1-0.2,0.2-0.4,0.3-0.6l31.7-0.1c0.4,1.4,1.8,2.2,3.2,1.9c1.2-0.3,2-1.4,1.9-2.6c0-0.5-0.1-0.9-0.4-1.3
			l33.1-33.2c0.4,0.2,0.8,0.3,1.3,0.3c1.5,0.1,2.7-1,2.8-2.5c0.1-1.5-1-2.7-2.5-2.8C397.6,34.3,397.5,34.3,397.4,34.3L397.4,34.3z"
			/>
		<path d="M435.4,220.7c0-0.4-0.3-0.7-0.7-0.7l0,0h-0.1l0,0l-36.7,0.1l0,0l-73.6,0.1l0,0l-73.6,0.2l0,0l-73.6,0.1l0,0l-36.8,0.1l0,0
			l-36,0.1L103.9,0.8c0-0.4-0.3-0.7-0.7-0.7c0,0,0,0,0,0H94c-0.4,0-0.7,0.3-0.7,0.7c0,0.4,0.3,0.7,0.7,0.7l0,0h8.5l0.1,35.3h-8.5
			c-0.4,0-0.7,0.3-0.7,0.7c0,0.4,0.3,0.7,0.7,0.7c0,0,0,0,0,0l0,0h8.5l0.1,35.4h-8.5c-0.4,0-0.7,0.3-0.7,0.7c0,0,0,0,0,0
			c0,0.4,0.3,0.7,0.7,0.7l0,0h8.5l0.1,35.3h-8.5c-0.4,0-0.7,0.3-0.7,0.7c0,0.4,0.3,0.7,0.7,0.7c0,0,0,0,0,0l0,0h8.5l0.1,35.3h-8.5
			c-0.4,0-0.7,0.3-0.7,0.7c0,0.4,0.3,0.7,0.7,0.7l0,0h8.5l0.1,35.4h-8.5c-0.4,0-0.7,0.2-0.8,0.6c0,0.4,0.2,0.7,0.6,0.8
			c0.1,0,0.1,0,0.2,0h8.5l0.1,35.3h-8.5c-0.4,0-0.7,0.3-0.7,0.7c0,0.4,0.3,0.7,0.7,0.7l0,0h8.4v8.5c0,0.4,0.3,0.7,0.7,0.7h0l0,0
			c0.4,0,0.7-0.3,0.7-0.7l0,0v-8.5l35.3-0.1v8.5c0,0.4,0.3,0.7,0.7,0.7c0,0,0,0,0,0l0,0c0.4,0,0.7-0.3,0.7-0.7v0v-8.5l35.4-0.1v8.5
			c0,0.4,0.3,0.7,0.7,0.7h0c0.4,0,0.7-0.3,0.7-0.7V222l35.4-0.1v8.5c0,0.4,0.3,0.7,0.7,0.7h0l0,0c0.4,0,0.7-0.3,0.7-0.7v0v-8.5
			l35.4-0.1v8.5c0,0.4,0.3,0.7,0.7,0.7c0,0,0,0,0,0l0,0c0.4,0,0.7-0.3,0.7-0.7v0v-8.5l35.4-0.1v8.5c0,0.4,0.3,0.7,0.7,0.7l0,0
			c0.4,0,0.7-0.3,0.7-0.7v-8.5l35.4-0.1v8.5c0,0.4,0.3,0.7,0.7,0.7l0,0c0.4,0,0.7-0.3,0.7-0.7v-8.5l35.4-0.1v8.5
			c0,0.4,0.3,0.7,0.7,0.7c0,0,0,0,0,0l0,0c0.4,0,0.7-0.3,0.7-0.7v-8.5l35.4-0.1v8.5c0,0.4,0.3,0.7,0.7,0.7l0,0
			c0.4,0,0.7-0.3,0.7-0.7v-8.5l35.4-0.1v8.5c0,0.4,0.3,0.7,0.7,0.7l0,0c0.4,0,0.7-0.3,0.7-0.7L435.4,220.7z"/>
		<text transform="matrix(1 0 0 1 245.13 254.06)" class="st2 st3 animated fadeIn">Time</text>
		<text transform="matrix(1 -2.094394e-03 2.094394e-03 1 3.000848e-02 120.95)" class="st2 st3 animated fadeIn">Retention</text>
	</g>
</g>
</svg>
