<?xml version="1.0" encoding="utf-8"?>
<!-- Generator: Adobe Illustrator 24.1.2, SVG Export Plug-In . SVG Version: 6.00 Build 0)  -->
<svg version="1.1" id="Layer_1" xmlns="http://www.w3.org/2000/svg" xmlns:xlink="http://www.w3.org/1999/xlink" x="0px" y="0px"
	 viewBox="0 0 435.2 257.8" style="enable-background:new 0 0 435.2 257.8;" xml:space="preserve">
<style type="text/css">
	.st0{fill:#E6E6E6;}
	.green{fill:#9ECA7D;}
	.st2{font-family:'Raleway-Bold';}
	.st3{font-size:16px;}
</style>
<g id="Layer_2_1_">
	<g id="Layer_1-2">
		<path class="st0" d="M434.7,221.1l-0.1-36.9V184l0,0l-0.1-36.6v-0.1l0,0l-0.1-36.6v-0.2l0,0l-0.1-36.6v-0.1l0,0l-0.1-36.6V37l0,0
			l-0.1-36.6V0.2l-36.8,0.1h-0.3l-36.5,0.1h-0.3L324,0.4h-0.3l-36.5,0.1h-0.3l-36.5,0.1h-0.3l-36.5,0.1h-0.3l-36.5,0.1h-0.3
			l-36.5,0.1h-0.3l-36.6,0.1h-0.1l0.1,36.8l0,0V38l0,0l0.1,36.5l0,0v0.3l0,0l0.1,36.5l0,0v0.3l0,0l0.1,36.5l0,0v0.3l0,0l0.1,36.5
			l0,0v0.2l0,0l0.1,36.6v0.1l36.8-0.1h0.3l36.5-0.1h0.3l36.5-0.1h0.3l36.5-0.1h0.3l36.5-0.1h0.3l36.5-0.1h0.3l36.5-0.1h0.3l36.5-0.1
			h0.3l36.6-0.1L434.7,221.1z M361,147.4l0-24.3V111l36.5-0.1l0,24.3v12.2L361,147.4z M287.5,123.3v-12.2l36.5-0.1l0,24.3v12.2
			l-36.5,0.1L287.5,123.3z M360.7,98.5v12.2l-36.5,0.1V86.4V74.3l36.5-0.1V98.5z M323.9,98.6v12.2l-36.5,0.1l0-24.3V74.3l36.5-0.1
			L323.9,98.6z M287.1,98.6v12.2l-36.5,0.1l-0.1-36.5l36.5-0.1L287.1,98.6z M250.4,110.9l-36.5,0.1l-0.1-36.5l36.5-0.1L250.4,110.9z
			 M213.6,111l-36.5,0.1l-0.1-36.5l36.5-0.1L213.6,111z M177.1,111.3l36.5-0.1l0.1,36.5l-36.5,0.1L177.1,111.3z M213.9,111.3
			l36.5-0.1l0.1,36.5l-36.5,0.1L213.9,111.3z M250.7,111.2l36.5-0.1l0,24.3v12.2l-36.5,0.1L250.7,111.2z M324.2,123.2V111l36.5-0.1
			l0,24.3v12.2l-36.5,0.1L324.2,123.2z M361,110.7l0-24.3V74.2l36.5-0.1l0,24.3v12.2L361,110.7z M397.4,61.7v12.2l-36.5,0.1V49.6
			V37.4l36.5-0.1V61.7z M360.6,61.8v12.2L324.1,74l-0.1-24.3V37.5l36.5-0.1L360.6,61.8z M323.9,61.8V74l-36.5,0.1l0-24.3V37.6
			l36.5-0.1L323.9,61.8z M287.1,61.9v12.2l-36.5,0.1l-0.1-36.5l36.5-0.1L287.1,61.9z M250.3,74.1l-36.5,0.1l-0.1-36.5l36.5-0.1
			L250.3,74.1z M213.6,74.2l-36.5,0.1L177,37.8l36.5-0.1L213.6,74.2z M176.8,74.3l-36.5,0.1l-0.1-36.5l36.5-0.1L176.8,74.3z
			 M176.8,74.6l0.1,36.5l-36.5,0.1l-0.1-36.5L176.8,74.6z M176.9,111.3l0.1,36.5l-36.5,0.1l-0.1-36.5L176.9,111.3z M177,148.1
			l0.1,36.5l-36.5,0.1l-0.1-36.5L177,148.1z M177.3,148.1l36.5-0.1l0.1,36.5l-36.5,0.1L177.3,148.1z M214,148l36.5-0.1l0.1,36.5
			l-36.5,0.1L214,148z M250.8,147.9l36.5-0.1l0,24.3v12.2l-36.5,0.1L250.8,147.9z M287.5,160v-12.2l36.5-0.1l0,24.3v12.2l-36.5,0.1
			L287.5,160z M324.3,159.9v-12.2l36.5-0.1l0,24.3v12.2l-36.5,0.1L324.3,159.9z M361.1,159.8v-12.2l36.5-0.1v24.3v12.2l-36.5,0.1
			L361.1,159.8z M397.8,159.8v-12.2l36.5-0.1l0.1,36.5l-36.5,0.1L397.8,159.8z M397.8,123v-12.2l36.5-0.1l0.1,36.5l-36.5,0.1
			L397.8,123z M397.7,86.2V74.1l36.5-0.1l0.1,36.5l-36.5,0.1L397.7,86.2z M397.6,49.5V37.3l36.5-0.1l0.1,36.5l-36.5,0.1L397.6,49.5z
			 M140,74.4l-36.5,0.1L103.5,38l36.5-0.1V74.4z M140.1,111.1l-36.5,0.1l-0.1-36.5l36.5-0.1L140.1,111.1z M140.2,147.9l-36.5,0.1
			l-0.1-36.5l36.5-0.1L140.2,147.9z M140.2,184.7l-36.5,0.1l-0.1-36.5l36.5-0.1L140.2,184.7z M287.3,184.7l0,24.3v12.2l-36.5,0.1
			l-0.1-36.5L287.3,184.7z M434.1,37l-36.5,0.1V12.8V0.6L434,0.5L434.1,37z M397.3,24.9v12.2l-36.5,0.1l0-24.3V0.7l36.5-0.1
			L397.3,24.9z M360.5,25v12.2L324,37.2l0-24.3V0.7l36.5-0.1L360.5,25z M323.8,25v12.2l-36.5,0.1l0-24.2V0.8l36.5-0.1L323.8,25z
			 M286.9,0.8l0.1,24.3v12.2l-36.5,0.1l-0.1-36.5L286.9,0.8z M250.2,0.9l0.1,36.5l-36.5,0.1L213.7,1L250.2,0.9z M213.4,1l0.1,36.5
			l-36.5,0L176.9,1H213.4z M176.6,1l0.1,36.5l-36.5,0.1l-0.1-36.5L176.6,1z M139.9,1.1l0.1,36.5l-36.5,0.1l-0.1-36.5L139.9,1.1z
			 M103.9,221.5l-0.1-36.5l36.5-0.1l0.1,36.5L103.9,221.5z M140.6,221.4l-0.1-36.5l36.5-0.1l0.1,36.5L140.6,221.4z M177.4,221.3
			l-0.1-36.5l36.5-0.1l0.1,36.5L177.4,221.3z M214.2,221.2l-0.1-36.5l36.5-0.1l0.1,36.5L214.2,221.2z M287.6,196.8v-12.2l36.5-0.1
			l0,24.3V221l-36.5,0.1L287.6,196.8z M324.4,196.7v-12.2l36.5-0.1v24.3v12.2l-36.5,0.1V196.7z M361.2,196.6v-12.2l36.5-0.1l0,24.3
			v12.2l-36.5,0.1L361.2,196.6z M398,220.9l0-24.3v-12.2l36.5-0.1l0.1,36.5L398,220.9z"/>
		<path class="green animated fadeInUp" d="M397.6,34.8c-1.5,0-2.6,1.2-2.6,2.6c0,0.7,0.3,1.5,0.9,2l-34.5,69c-0.2,0-0.3,0-0.5,0c-1.2,0-2.2,0.8-2.5,1.9
			h-86.8c-0.4-1.4-1.8-2.2-3.2-1.8c-1.4,0.4-2.2,1.8-1.9,3.2c0.1,0.5,0.4,0.9,0.8,1.3l-34.5,69c-0.2,0-0.3,0-0.5-0.1
			c-1.2,0-2.2,0.8-2.5,1.9h-86.8c-0.4-1.4-1.9-2.2-3.3-1.8c-1.4,0.4-2.2,1.9-1.8,3.3s1.9,2.2,3.3,1.8c0.9-0.2,1.6-0.9,1.8-1.8h86.8
			c0.4,1.4,1.9,2.2,3.3,1.8c1.1-0.3,1.9-1.4,1.9-2.5c0-0.7-0.3-1.5-0.9-1.9l34.5-69c0.2,0,0.3,0,0.5,0.1c1.2,0,2.2-0.8,2.5-1.9h86.8
			c0.4,1.4,1.9,2.2,3.3,1.8c1.1-0.3,1.9-1.4,1.9-2.5c0-0.8-0.3-1.5-0.9-2l34.5-69c0.2,0,0.3,0,0.5,0c1.5-0.1,2.6-1.3,2.5-2.8
			C400,35.9,398.9,34.9,397.6,34.8L397.6,34.8z"/>
		<path d="M434.5,220.6h-0.1l0,0H104.2V0.7c0-0.4-0.3-0.7-0.7-0.7h-9.2c-0.4,0-0.7,0.3-0.7,0.7s0.3,0.7,0.7,0.7h8.5v35.3h-8.5
			c-0.4,0-0.7,0.3-0.7,0.7c0,0.4,0.3,0.7,0.7,0.7h8.5v35.4h-8.5c-0.4,0-0.7,0.3-0.7,0.7c0,0.4,0.3,0.7,0.7,0.7c0,0,0,0,0,0h8.5v35.3
			h-8.5c-0.4,0-0.7,0.3-0.7,0.7c0,0.4,0.3,0.7,0.7,0.7c0,0,0,0,0,0h8.5v35.4h-8.5c-0.4,0-0.7,0.3-0.7,0.7c0,0.4,0.3,0.7,0.7,0.7h8.5
			v35.3h-8.5c-0.4,0-0.7,0.3-0.7,0.7c0,0.4,0.3,0.7,0.7,0.7c0,0,0,0,0,0h8.5v35.4h-8.5c-0.4,0-0.7,0.3-0.7,0.7
			c0,0.4,0.3,0.7,0.7,0.7c0,0,0,0,0,0h8.4v8.5c0,0.4,0.3,0.7,0.7,0.7c0.4,0,0.7-0.3,0.7-0.7c0,0,0,0,0,0V222h35.4v8.5
			c0,0.4,0.2,0.7,0.6,0.8c0.4,0,0.7-0.2,0.8-0.6c0-0.1,0-0.1,0-0.2V222h35.4v8.5c0,0.4,0.2,0.7,0.6,0.8c0.4,0,0.7-0.2,0.8-0.6
			c0-0.1,0-0.1,0-0.2V222H213v8.5c0,0.4,0.2,0.7,0.6,0.8c0.4,0,0.7-0.2,0.8-0.6c0-0.1,0-0.1,0-0.2V222h35.4v8.5
			c0,0.4,0.2,0.7,0.6,0.8c0.4,0,0.7-0.2,0.8-0.6c0-0.1,0-0.1,0-0.2V222h35.4v8.5c0,0.4,0.2,0.7,0.6,0.8c0.4,0,0.7-0.2,0.8-0.6
			c0-0.1,0-0.1,0-0.2V222h35.4v8.5c0,0.4,0.2,0.7,0.6,0.8c0.4,0,0.7-0.2,0.8-0.6c0-0.1,0-0.1,0-0.2V222h35.4v8.5
			c0,0.4,0.2,0.7,0.6,0.8c0.4,0,0.7-0.2,0.8-0.6c0-0.1,0-0.1,0-0.2V222H397v8.5c0,0.4,0.2,0.7,0.6,0.8c0.4,0,0.7-0.2,0.8-0.6
			c0-0.1,0-0.1,0-0.2V222h35.4v8.5c0,0.4,0.2,0.7,0.6,0.8c0.4,0,0.7-0.2,0.8-0.6c0-0.1,0-0.1,0-0.2v-9.2
			C435.2,220.9,434.9,220.6,434.5,220.6C434.5,220.6,434.5,220.6,434.5,220.6z"/>
		<text transform="matrix(1 0 0 1 249.69 254.17)" class="st2 st3 animated fadeIn">Time</text>
		<text transform="matrix(1 -2.094394e-03 2.094394e-03 1 3.000848e-02 116.1)" class="st2 st3 animated fadeIn">Retention</text>
	</g>
</g>
</svg>
