<?xml version="1.0" encoding="utf-8"?>
<!-- Generator: Adobe Illustrator 24.1.0, SVG Export Plug-In . SVG Version: 6.00 Build 0)  -->
<svg version="1.1" id="Layer_1" xmlns="http://www.w3.org/2000/svg" xmlns:xlink="http://www.w3.org/1999/xlink" x="0px" y="0px"
	 viewBox="0 0 128.87 18.87" style="enable-background:new 0 0 128.87 18.87;" xml:space="preserve">
<g>
	<g>
		<path d="M11.24,7.66c-0.15-0.27-0.35-0.54-0.6-0.76c-0.47-0.41-1.1-0.7-1.89-0.7c-1.42,0-3.09,1.05-3.09,3.28
			c0,2.37,1.68,3.39,3.1,3.39c0.72,0,1.31-0.18,1.77-0.5c0.46-0.31,0.78-0.76,0.93-1.31l-3.37,0l0-2.31l6.7,0.01
			c0.06,0.81-0.03,2.14-0.52,3.24c-1.1,2.49-3.64,3.42-5.5,3.42c-3.42,0-6-2.68-6-5.93c0-3.37,2.72-5.82,6.05-5.81
			c2.7,0,5.02,1.82,5.65,4.01L11.24,7.66z"/>
		<path d="M19.05,5.72c-0.32,0-0.67,0.24-0.67,0.75c0,0.53,0.38,0.95,0.64,1.22c0.34-0.34,0.7-0.7,0.7-1.25
			c0-0.4-0.23-0.72-0.66-0.72L19.05,5.72z M18.54,10.56c-0.37,0.29-0.87,0.69-0.87,1.31c0,0.72,0.61,1.11,1.36,1.12
			c0.73,0,1.1-0.33,1.3-0.63L18.54,10.56z M25.21,8.55l-1.84,3.43l1.71,1.74l-1.73,1.69L21.99,14c-0.29,0.5-1.21,1.42-3.04,1.42
			c-2.52,0-4.06-1.45-4.06-3.29c0-1.68,1.28-2.55,2.09-3.1c-0.79-0.81-1.07-1.63-1.07-2.44c0-1.65,1.39-2.92,3.13-2.91
			c1.74,0,2.96,1.25,2.96,2.78c0,1.48-1.07,2.24-1.56,2.59l1.25,1.27l0.84-1.77L25.21,8.55z"/>
		<path d="M33.8,7.68c-0.15-0.28-0.35-0.54-0.59-0.76c-0.47-0.41-1.1-0.7-1.89-0.7c-1.42,0-3.09,1.05-3.09,3.28
			c0,2.37,1.68,3.39,3.1,3.39c0.72,0,1.31-0.18,1.77-0.5c0.46-0.31,0.78-0.76,0.93-1.31l-3.38,0l0-2.31l6.7,0.01
			c0.06,0.81-0.03,2.14-0.52,3.24c-1.1,2.49-3.64,3.42-5.5,3.42c-3.42,0-6-2.68-6-5.93c0-3.37,2.72-5.82,6.05-5.81
			c2.7,0,5.02,1.82,5.65,4.01L33.8,7.68z"/>
	</g>
	<g>
		<path d="M39.81,15.14l4.46-11.36l1.21,0l4.36,11.35l-1.1,0l-1.31-3.56l-5.17,0l-1.34,3.56L39.81,15.14z M42.61,10.66l4.45,0
			L44.83,4.7L42.61,10.66z"/>
		<path d="M51.37,15.13L51.36,3.78l3.88,0c0.32,0,0.63,0.01,0.93,0.02c0.3,0.02,0.6,0.05,0.9,0.11c0.29,0.06,0.58,0.14,0.86,0.26
			c0.28,0.12,0.55,0.27,0.81,0.46c0.38,0.27,0.69,0.61,0.93,1c0.24,0.39,0.43,0.81,0.58,1.25c0.14,0.44,0.24,0.88,0.3,1.32
			c0.06,0.45,0.09,0.86,0.09,1.24c0,0.38-0.02,0.76-0.07,1.15c-0.05,0.39-0.12,0.77-0.23,1.14c-0.11,0.37-0.24,0.73-0.42,1.07
			c-0.17,0.34-0.39,0.65-0.65,0.94c-0.26,0.29-0.55,0.53-0.86,0.71c-0.31,0.18-0.64,0.32-0.98,0.42c-0.34,0.1-0.7,0.17-1.06,0.21
			c-0.37,0.04-0.74,0.06-1.12,0.06L51.37,15.13z M52.44,14.22l2.57,0c0.48,0,0.94-0.03,1.36-0.09c0.43-0.06,0.86-0.2,1.3-0.43
			c0.38-0.19,0.69-0.45,0.93-0.77c0.24-0.33,0.43-0.68,0.57-1.06c0.14-0.38,0.24-0.79,0.3-1.21c0.06-0.42,0.09-0.83,0.09-1.21
			c0-0.41-0.03-0.83-0.08-1.25c-0.05-0.43-0.15-0.83-0.3-1.21c-0.15-0.38-0.35-0.74-0.6-1.06c-0.25-0.32-0.58-0.59-0.98-0.8
			c-0.34-0.18-0.74-0.29-1.2-0.35c-0.46-0.05-0.93-0.08-1.4-0.08l-2.57,0L52.44,14.22z"/>
		<path d="M61.75,3.77l1.12,0l3.43,10.09l3.4-10.09l1.12,0l-3.93,11.36l-1.18,0L61.75,3.77z"/>
		<path d="M71.94,9.46c0-0.83,0.11-1.61,0.34-2.33c0.23-0.73,0.56-1.36,1-1.9c0.44-0.54,0.99-0.97,1.64-1.29
			c0.65-0.32,1.4-0.47,2.25-0.47c0.88,0,1.66,0.15,2.33,0.46c0.67,0.31,1.22,0.74,1.67,1.28c0.45,0.54,0.78,1.18,1.01,1.91
			c0.23,0.73,0.34,1.51,0.34,2.34c0,0.82-0.11,1.59-0.34,2.31c-0.23,0.72-0.56,1.35-1,1.89c-0.44,0.54-0.99,0.97-1.66,1.29
			c-0.66,0.32-1.43,0.47-2.3,0.47c-0.87,0-1.64-0.16-2.3-0.47c-0.66-0.31-1.21-0.74-1.66-1.28c-0.44-0.54-0.77-1.17-0.99-1.89
			C72.05,11.05,71.94,10.28,71.94,9.46z M77.24,14.5c0.74,0,1.37-0.14,1.9-0.42c0.53-0.28,0.97-0.65,1.31-1.11
			c0.34-0.46,0.59-1,0.76-1.61c0.16-0.61,0.24-1.25,0.24-1.91c0-0.79-0.1-1.49-0.29-2.12c-0.19-0.63-0.48-1.16-0.84-1.6
			c-0.37-0.44-0.82-0.78-1.34-1.01c-0.53-0.23-1.11-0.35-1.77-0.35c-0.73,0-1.35,0.14-1.88,0.43c-0.53,0.28-0.97,0.66-1.31,1.13
			c-0.34,0.47-0.59,1.01-0.76,1.62c-0.16,0.61-0.24,1.25-0.24,1.91c0,0.67,0.08,1.31,0.25,1.92c0.16,0.61,0.42,1.15,0.76,1.61
			c0.34,0.46,0.78,0.83,1.31,1.1C75.86,14.37,76.5,14.5,77.24,14.5z"/>
		<path d="M92.71,7.05c-0.22-0.97-0.63-1.66-1.23-2.06c-0.6-0.41-1.38-0.61-2.35-0.61c-0.68,0-1.27,0.14-1.77,0.41
			c-0.49,0.27-0.9,0.64-1.22,1.1c-0.32,0.46-0.56,1-0.71,1.6c-0.15,0.6-0.23,1.24-0.23,1.92c0,0.63,0.07,1.25,0.2,1.86
			c0.13,0.61,0.35,1.15,0.66,1.63c0.31,0.48,0.72,0.86,1.23,1.16c0.52,0.29,1.16,0.44,1.94,0.44c0.48,0,0.92-0.08,1.32-0.24
			c0.4-0.16,0.75-0.38,1.05-0.66c0.3-0.28,0.55-0.61,0.76-0.99c0.2-0.38,0.36-0.79,0.46-1.25l1.12,0c-0.13,0.55-0.31,1.06-0.55,1.55
			c-0.24,0.49-0.56,0.92-0.95,1.29s-0.87,0.66-1.43,0.88c-0.56,0.22-1.22,0.32-1.98,0.32c-0.87,0-1.62-0.16-2.24-0.48
			c-0.62-0.32-1.13-0.75-1.52-1.3c-0.39-0.55-0.68-1.18-0.86-1.9c-0.18-0.72-0.27-1.48-0.27-2.29c0-1.08,0.13-2,0.4-2.76
			c0.27-0.76,0.64-1.37,1.11-1.85c0.47-0.48,1.03-0.83,1.67-1.04c0.64-0.22,1.34-0.32,2.1-0.32c0.58,0,1.12,0.08,1.62,0.23
			c0.5,0.15,0.94,0.38,1.33,0.69c0.38,0.3,0.7,0.68,0.95,1.13c0.25,0.45,0.42,0.96,0.51,1.55L92.71,7.05z"/>
		<path d="M95,15.11l4.46-11.36l1.21,0l4.36,11.35l-1.1,0l-1.31-3.56l-5.17,0l-1.34,3.56L95,15.11z M97.8,10.63l4.45,0l-2.23-5.96
			L97.8,10.63z"/>
		<path d="M114.61,7.04c-0.22-0.97-0.63-1.66-1.23-2.06c-0.6-0.41-1.38-0.61-2.35-0.61c-0.68,0-1.27,0.14-1.77,0.41
			c-0.49,0.27-0.9,0.64-1.22,1.1c-0.32,0.46-0.56,1-0.71,1.6c-0.15,0.6-0.23,1.24-0.23,1.92c0,0.63,0.07,1.25,0.2,1.86
			c0.13,0.61,0.35,1.15,0.66,1.63c0.31,0.48,0.72,0.86,1.23,1.16c0.52,0.29,1.16,0.44,1.94,0.44c0.48,0,0.92-0.08,1.32-0.24
			c0.4-0.16,0.75-0.38,1.05-0.66c0.3-0.28,0.55-0.61,0.76-0.99c0.2-0.38,0.36-0.79,0.46-1.25l1.12,0c-0.13,0.55-0.31,1.06-0.55,1.55
			c-0.24,0.49-0.56,0.92-0.95,1.29c-0.39,0.37-0.87,0.66-1.43,0.88c-0.56,0.22-1.22,0.32-1.98,0.32c-0.87,0-1.62-0.16-2.24-0.48
			c-0.62-0.32-1.13-0.75-1.52-1.3c-0.39-0.55-0.68-1.18-0.86-1.9c-0.18-0.72-0.27-1.48-0.27-2.29c0-1.08,0.13-2,0.4-2.76
			c0.27-0.76,0.64-1.37,1.11-1.85c0.47-0.48,1.03-0.83,1.67-1.04c0.64-0.22,1.34-0.32,2.1-0.32c0.58,0,1.12,0.08,1.62,0.23
			c0.5,0.15,0.94,0.38,1.33,0.69c0.38,0.3,0.7,0.68,0.95,1.13s0.42,0.96,0.51,1.55L114.61,7.04z"/>
		<path d="M121.42,9.21l3.42-5.47l1.25,0l-4.11,6.4l0,4.95l-1.07,0l0-4.87l-4.06-6.48l1.23,0L121.42,9.21z"/>
	</g>
</g>
</svg>
